# xmcd CD database file
#
# Track frame offsets:
#	150
#	16210
#	45208
#	67600
#
# Disc length: 1257 seconds
#
# Revision: 0
# Processed by: cddbd v1.4PL0 Copyright (c) Steve Scherf et al.
# Submitted via: CDex 1.50Beta7
#
DISCID=1d04e704
DTITLE=Feel good productions - The feel good vibe
DYEAR=2001
DGENRE=Rhythmic Soul
TTITLE0=The feel good vibe - radio edit
TTITLE1=The feel good vibe - album version
TTITLE2=The feel good vibe - badmarch rmx
TTITLE3=The feel good vibe - the dum dum project
EXTD=YEAR: 2001
EXTT0=
EXTT1=
EXTT2=
EXTT3=
PLAYORDER=
